<svg width="52" height="52" viewBox="0 0 52 52" fill="none" xmlns="http://www.w3.org/2000/svg">
<path d="M41.6 41.6C42.9791 41.6 44.3018 42.1479 45.277 43.123C46.2521 44.0982 46.8 45.4209 46.8 46.8C46.8 48.1791 46.2521 49.5018 45.277 50.477C44.3018 51.4521 42.9791 52 41.6 52C40.2209 52 38.8982 51.4521 37.923 50.477C36.9479 49.5018 36.4 48.1791 36.4 46.8C36.4 43.914 38.714 41.6 41.6 41.6ZM0 0H8.502L10.946 5.2H49.4C50.0896 5.2 50.7509 5.47393 51.2385 5.96152C51.7261 6.44912 52 7.11044 52 7.8C52 8.242 51.87 8.684 51.688 9.1L42.38 25.922C41.496 27.508 39.78 28.6 37.83 28.6H18.46L16.12 32.838L16.042 33.15C16.042 33.3224 16.1105 33.4877 16.2324 33.6096C16.3543 33.7315 16.5196 33.8 16.692 33.8H46.8V39H15.6C14.2209 39 12.8982 38.4521 11.923 37.477C10.9479 36.5018 10.4 35.1791 10.4 33.8C10.4 32.89 10.634 32.032 11.024 31.304L14.56 24.934L5.2 5.2H0V0ZM15.6 41.6C16.9791 41.6 18.3018 42.1479 19.277 43.123C20.2521 44.0982 20.8 45.4209 20.8 46.8C20.8 48.1791 20.2521 49.5018 19.277 50.477C18.3018 51.4521 16.9791 52 15.6 52C14.2209 52 12.8982 51.4521 11.923 50.477C10.9479 49.5018 10.4 48.1791 10.4 46.8C10.4 43.914 12.714 41.6 15.6 41.6ZM39 23.4L46.228 10.4H13.364L19.5 23.4H39Z" fill="#8987C1"/>
</svg>
