<svg width="50" height="44" viewBox="0 0 50 44" fill="none" xmlns="http://www.w3.org/2000/svg">
<path d="M44.25 0C45.7087 0 47.1076 0.579462 48.1391 1.61091C49.1705 2.64236 49.75 4.04131 49.75 5.5V38.5C49.75 39.9587 49.1705 41.3576 48.1391 42.3891C47.1076 43.4205 45.7087 44 44.25 44H5.75C4.29131 44 2.89236 43.4205 1.86091 42.3891C0.829462 41.3576 0.25 39.9587 0.25 38.5V5.5C0.25 4.04131 0.829462 2.64236 1.86091 1.61091C2.89236 0.579462 4.29131 0 5.75 0H44.25ZM44.25 16.5H5.75V35.75C5.75009 36.4236 5.99738 37.0737 6.44497 37.577C6.89255 38.0804 7.50931 38.4019 8.17825 38.4808L8.5 38.5H41.5C42.1736 38.4999 42.8237 38.2526 43.327 37.805C43.8304 37.3574 44.1519 36.7407 44.2308 36.0718L44.25 35.75V16.5ZM8.5 5.5C7.77065 5.5 7.07118 5.78973 6.55546 6.30546C6.03973 6.82118 5.75 7.52065 5.75 8.25C5.75 8.97935 6.03973 9.67882 6.55546 10.1945C7.07118 10.7103 7.77065 11 8.5 11C9.22935 11 9.92882 10.7103 10.4445 10.1945C10.9603 9.67882 11.25 8.97935 11.25 8.25C11.25 7.52065 10.9603 6.82118 10.4445 6.30546C9.92882 5.78973 9.22935 5.5 8.5 5.5ZM16.75 5.5C16.0207 5.5 15.3212 5.78973 14.8055 6.30546C14.2897 6.82118 14 7.52065 14 8.25C14 8.97935 14.2897 9.67882 14.8055 10.1945C15.3212 10.7103 16.0207 11 16.75 11C17.4793 11 18.1788 10.7103 18.6945 10.1945C19.2103 9.67882 19.5 8.97935 19.5 8.25C19.5 7.52065 19.2103 6.82118 18.6945 6.30546C18.1788 5.78973 17.4793 5.5 16.75 5.5ZM25 5.5C24.2707 5.5 23.5712 5.78973 23.0555 6.30546C22.5397 6.82118 22.25 7.52065 22.25 8.25C22.25 8.97935 22.5397 9.67882 23.0555 10.1945C23.5712 10.7103 24.2707 11 25 11C25.7293 11 26.4288 10.7103 26.9445 10.1945C27.4603 9.67882 27.75 8.97935 27.75 8.25C27.75 7.52065 27.4603 6.82118 26.9445 6.30546C26.4288 5.78973 25.7293 5.5 25 5.5Z" fill="#8987C1"/>
</svg>
