<svg width="30" height="47" viewBox="0 0 30 47" fill="none" xmlns="http://www.w3.org/2000/svg">
<path fill-rule="evenodd" clip-rule="evenodd" d="M6.55334 16.9369C5.69341 16.9369 4.8419 17.1066 4.04743 17.4364C3.25296 17.7661 2.53108 18.2495 1.92302 18.8588C1.31495 19.4681 0.832612 20.1915 0.503531 20.9876C0.174449 21.7837 0.00507358 22.637 0.00507358 23.4987C0.00507358 24.3604 0.174449 25.2137 0.503531 26.0098C0.832612 26.806 1.31495 27.5293 1.92302 28.1387C2.53108 28.748 3.25296 29.2313 4.04743 29.5611C4.8419 29.8909 5.69341 30.0606 6.55334 30.0606H13.1016V23.6308C13.1006 23.5428 13.1006 23.4547 13.1016 23.3666V16.9369H6.55334ZM13.1016 13.1263H6.55334C4.8163 13.1263 3.1504 12.4348 1.92212 11.204C0.693844 9.97314 0.0038055 8.30378 0.0038055 6.56313C0.0038055 4.82248 0.693844 3.15312 1.92212 1.9223C3.1504 0.691471 4.8163 0 6.55334 0H13.1016V13.1263ZM16.9043 0V13.1263H23.4526C25.1673 13.0925 26.8004 12.3861 28.0012 11.159C29.2019 9.93184 29.8745 8.28176 29.8745 6.56313C29.8745 4.84451 29.2019 3.19443 28.0012 1.96728C26.8004 0.740135 25.1673 0.0338075 23.4526 0H16.9043ZM23.4526 16.9343C21.7337 16.9341 20.0837 17.6111 18.8586 18.8193C17.6335 20.0274 16.9316 21.6698 16.9043 23.392V23.6029C16.9253 24.896 17.3271 26.154 18.0593 27.2189C18.7915 28.2839 19.8213 29.1083 21.0196 29.5887C22.2178 30.069 23.531 30.1838 24.7941 29.9187C26.0573 29.6536 27.2141 29.0204 28.1192 28.0986C29.0244 27.1768 29.6376 26.0075 29.8817 24.7376C30.1259 23.4677 29.9901 22.1539 29.4916 20.9611C28.993 19.7682 28.1537 18.7496 27.0793 18.0332C26.0049 17.3168 24.7431 16.9345 23.4526 16.9343ZM6.55334 33.8712C5.25761 33.8707 3.99083 34.2553 2.91322 34.9763C1.83561 35.6973 0.995585 36.7223 0.499382 37.9217C0.00317814 39.1212 -0.126912 40.4412 0.125566 41.7147C0.378044 42.9882 1.00175 44.1581 1.91779 45.0764C2.83384 45.9947 4.00108 46.6202 5.27188 46.8737C6.54268 47.1272 7.85996 46.9973 9.05711 46.5006C10.2543 46.0038 11.2775 45.1624 11.9974 44.0829C12.7174 43.0033 13.1016 41.734 13.1016 40.4356V33.8712H6.55334Z" fill="#8987C1"/>
</svg>
