<svg width="118" height="104" viewBox="0 0 118 104" fill="none" xmlns="http://www.w3.org/2000/svg">
<path d="M15.2963 0H102.704C106.761 0 110.651 1.534 113.52 4.26453C116.388 6.99506 118 10.6984 118 14.56V70.72C118 74.5816 116.388 78.2849 113.52 81.0155C110.651 83.746 106.761 85.28 102.704 85.28H65.5556V91.52H76.4815C78.2201 91.52 79.8876 92.1774 81.117 93.3477C82.3464 94.5179 83.037 96.105 83.037 97.76C83.037 99.4149 82.3464 101.002 81.117 102.172C79.8876 103.343 78.2201 104 76.4815 104H41.5185C39.7799 104 38.1124 103.343 36.883 102.172C35.6536 101.002 34.963 99.4149 34.963 97.76C34.963 96.105 35.6536 94.5179 36.883 93.3477C38.1124 92.1774 39.7799 91.52 41.5185 91.52H52.4444V85.28H15.2963C13.2876 85.28 11.2985 84.9034 9.44266 84.1717C7.58682 83.44 5.90057 82.3675 4.48018 81.0155C3.05978 79.6635 1.93307 78.0584 1.16436 76.2919C0.395653 74.5254 0 72.632 0 70.72V14.56C0 12.648 0.395653 10.7546 1.16436 8.98813C1.93307 7.22163 3.05978 5.61655 4.48018 4.26453C5.90057 2.9125 7.58682 1.84002 9.44266 1.10831C11.2985 0.376606 13.2876 0 15.2963 0ZM102.704 12.48H15.2963C14.7168 12.48 14.1609 12.6991 13.7511 13.0892C13.3413 13.4793 13.1111 14.0083 13.1111 14.56V52H104.889V14.56C104.889 14.0083 104.659 13.4793 104.249 13.0892C103.839 12.6991 103.283 12.48 102.704 12.48ZM15.2963 72.8H102.704C103.283 72.8 103.839 72.5809 104.249 72.1908C104.659 71.8007 104.889 71.2716 104.889 70.72V64.48H13.1111V70.72C13.1111 71.2716 13.3413 71.8007 13.7511 72.1908C14.1609 72.5809 14.7168 72.8 15.2963 72.8Z" fill="white"/>
</svg>
