<svg width="54" height="50" viewBox="0 0 54 50" fill="none" xmlns="http://www.w3.org/2000/svg">
<path d="M7.625 0.71875H46.375C48.1735 0.71875 49.8983 1.4332 51.1701 2.70493C52.4418 3.97666 53.1562 5.7015 53.1562 7.5V33.6562C53.1562 35.4548 52.4418 37.1796 51.1701 38.4513C49.8983 39.723 48.1735 40.4375 46.375 40.4375H29.9062V43.3438H34.75C35.5208 43.3438 36.26 43.6499 36.805 44.195C37.3501 44.74 37.6562 45.4792 37.6562 46.25C37.6562 47.0208 37.3501 47.76 36.805 48.305C36.26 48.8501 35.5208 49.1562 34.75 49.1562H19.25C18.4792 49.1562 17.74 48.8501 17.195 48.305C16.6499 47.76 16.3438 47.0208 16.3438 46.25C16.3438 45.4792 16.6499 44.74 17.195 44.195C17.74 43.6499 18.4792 43.3438 19.25 43.3438H24.0938V40.4375H7.625C6.73447 40.4375 5.85267 40.2621 5.02993 39.9213C4.20719 39.5805 3.45963 39.081 2.82993 38.4513C2.20023 37.8216 1.70073 37.0741 1.35994 36.2513C1.01915 35.4286 0.84375 34.5468 0.84375 33.6562V7.5C0.84375 6.60947 1.01915 5.72767 1.35994 4.90493C1.70073 4.08219 2.20023 3.33463 2.82993 2.70493C3.45963 2.07524 4.20719 1.57573 5.02993 1.23494C5.85267 0.894153 6.73447 0.71875 7.625 0.71875ZM46.375 6.53125H7.625C7.36807 6.53125 7.12167 6.63331 6.93999 6.81499C6.75831 6.99667 6.65625 7.24307 6.65625 7.5V24.9375H47.3438V7.5C47.3438 7.24307 47.2417 6.99667 47.06 6.81499C46.8783 6.63331 46.6319 6.53125 46.375 6.53125ZM7.625 34.625H46.375C46.6319 34.625 46.8783 34.5229 47.06 34.3413C47.2417 34.1596 47.3438 33.9132 47.3438 33.6562V30.75H6.65625V33.6562C6.65625 33.9132 6.75831 34.1596 6.93999 34.3413C7.12167 34.5229 7.36807 34.625 7.625 34.625Z" fill="#8987C1"/>
</svg>
